<svg width="313" height="58" viewBox="0 0 313 58" fill="none" xmlns="http://www.w3.org/2000/svg">
<path d="M20.864 5.76H13.632V57.6H7.23202V5.76H2.05636e-05V-3.8147e-06H20.864V5.76ZM30.119 51.84H35.559V5.76H30.119V51.84ZM23.719 57.6V-3.8147e-06H41.959V57.6H23.719ZM52.494 19.456V57.6H46.094V-3.8147e-06H52.494V0.0639992L60.174 38.208V-3.8147e-06H66.574V57.6H60.174L52.494 19.456ZM78.5835 -3.8147e-06V57.6H72.1835V-3.8147e-06H78.5835ZM102.084 26.176V57.6H83.844V-3.8147e-06H102.084V10.88H95.684V5.76H90.244V51.84H95.684V31.936H92.292V26.176H102.084ZM118.059 -3.8147e-06H124.459V57.6H118.059V32H112.619V57.6H106.219V-3.8147e-06H112.619V26.24H118.059V-3.8147e-06ZM148.114 5.76H140.882V57.6H134.482V5.76H127.25V-3.8147e-06H148.114V5.76ZM188.302 5.76H181.07V57.6H174.67V5.76H167.438V-3.8147e-06H188.302V5.76ZM197.557 51.84H202.997V5.76H197.557V51.84ZM191.157 57.6V-3.8147e-06H209.397V57.6H191.157ZM237.744 19.456V57.6H231.344V-3.8147e-06H237.744V0.0639992L245.424 38.208V-3.8147e-06H251.824V57.6H245.424L237.744 19.456ZM263.834 -3.8147e-06V57.6H257.434V-3.8147e-06H263.834ZM275.494 19.456V57.6H269.094V-3.8147e-06H275.494V0.0639992L283.174 38.208V-3.8147e-06H289.574V57.6H283.174L275.494 19.456ZM294.032 57.6V-3.8147e-06H312.272V5.76H300.432V26.24H312.272V32H300.432V51.84H312.272V57.6H294.032Z" fill="#BA7EFF"/>
</svg>
